<?xml version="1.0" encoding="UTF-8" standalone="no"?>
<!DOCTYPE svg PUBLIC "-//W3C//DTD SVG 1.1//EN" "http://www.w3.org/Graphics/SVG/1.1/DTD/svg11.dtd">
<svg xmlns:dc="http://purl.org/dc/elements/1.1/" xmlns:xl="http://www.w3.org/1999/xlink" version="1.1" xmlns="http://www.w3.org/2000/svg" viewBox="0 0 402 243" width="402" height="243">
  <g id="Spaceship" fill-opacity="1" stroke-dasharray="none" stroke="none" stroke-opacity="1" fill="none">
    <title>Spaceship</title>
    <g id="Spaceship: Layer 1">
      <title>Layer 1</title>
      <g id="Group_101">
        <g id="Graphic_94">
          <title>path4372</title>
          <path d="M 290.9 161.2 L 277.3 186.3 C 272.5 195.2 263.1 200.8 252.9 200.8 L 161.8 200.8 C 157.5 200.8 153.4 198.8 150.7 195.5 L 135 176.2 L 125.8 164.8 C 118.3 155.5 124.8 141.6 136.8 141.5 L 278.2 140.1 C 289.1 139.9 296.1 151.6 290.9 161.2" fill="#666"/>
        </g>
        <g id="Graphic_93">
          <title>path4374</title>
          <path d="M 401.5 110.9 C 401.5 129.1 314.9 162.8 202 162.8 C 89.1 162.8 .5 129.1 .5 110.9 C .5 92.7 89.1 96.9 202 96.9 C 314.9 96.9 401.5 92.6 401.5 110.9" fill="gray"/>
        </g>
        <g id="Graphic_92">
          <title>path4376</title>
          <path d="M 401.5 110.9 L 401.1 110.9 C 401.1 113 399.8 115.5 397.3 118.1 C 392.8 122.7 384.6 127.8 373.1 132.8 C 338.8 147.9 276.1 162.4 202 162.4 C 145.6 162.4 95.2 154 59 143.3 C 40.9 138 26.3 132 16.3 126.3 C 11.3 123.4 7.4 120.7 4.8 118 C 2.2 115.4 .9 112.9 .9 110.8 C .9 109.4 1.5 108.1 2.7 106.9 C 4.8 104.8 8.8 103.1 14.5 101.7 C 31.5 97.6 63.4 96.8 104.3 96.8 C 133.1 96.8 166.4 97.2 202.1 97.2 C 237.8 97.2 270.9 96.8 299.4 96.8 C 330.2 96.8 355.8 97.3 373.6 99.3 C 382.5 100.3 389.5 101.7 394.2 103.6 C 396.5 104.6 398.3 105.6 399.5 106.8 C 400.7 108 401.2 109.3 401.3 110.7 L 401.5 110.7 L 401.9 110.7 C 401.9 109 401.2 107.5 399.9 106.2 C 397.7 103.9 393.6 102.2 388 100.8 C 371.2 96.7 339.8 95.8 299.3 95.8 C 270.8 95.8 237.7 96.2 202 96.2 C 166.3 96.2 133 95.8 104.2 95.8 C 73 95.8 47.1 96.3 29 98.3 C 19.9 99.3 12.8 100.7 7.9 102.7 C 5.4 103.7 3.5 104.8 2.2 106.1 C .9 107.4 .2 108.9 .2 110.6 C .2 113 1.7 115.6 4.3 118.3 C 9 123 17.5 128.1 29.2 133.2 C 64.2 148.4 127.9 162.9 202.1 162.9 C 258.6 162.9 308.5 154.5 344.3 143.7 C 362.2 138.3 376.6 132.4 386.5 126.7 C 391.5 123.8 395.3 121 397.9 118.3 C 400.5 115.6 401.9 113 401.9 110.6 L 401.5 110.6" fill="black"/>
        </g>
        <g id="Graphic_91">
          <title>path4378</title>
          <path d="M 401.5 110.9 C 401.5 134.1 311.7 152.8 201 152.8 C 90.3 152.8 .5 134 .5 110.9 C .5 87.7 90.3 69 201 69 C 311.7 69 401.5 87.7 401.5 110.9" fill="#666"/>
        </g>
        <g id="Graphic_90">
          <title>path4380</title>
          <path d="M 401.5 110.9 L 401.1 110.9 C 401.1 113.7 399.8 116.4 397.1 119.1 C 392.5 123.8 384 128.3 372.3 132.3 C 337.2 144.4 273.6 152.5 200.9 152.5 C 145.6 152.5 95.4 147.8 59.2 140.2 C 41.1 136.4 26.4 131.9 16.3 126.9 C 11.3 124.4 7.3 121.8 4.7 119.1 C 2.1 116.4 .7 113.7 .7 110.9 C .7 108.1 2 105.4 4.7 102.7 C 9.3 98 17.8 93.5 29.5 89.5 C 64.6 77.4 128.2 69.3 200.9 69.3 C 256.2 69.3 306.4 74 342.6 81.6 C 360.7 85.4 375.4 89.9 385.5 94.9 C 390.5 97.4 394.5 100 397.1 102.7 C 399.7 105.4 401.1 108.1 401.1 110.9 L 401.5 110.9 L 401.9 110.9 C 401.9 107.9 400.4 105 397.7 102.2 C 392.9 97.3 384.3 92.9 372.6 88.8 C 337.4 76.7 273.7 68.6 201 68.6 C 145.6 68.6 95.5 73.3 59.1 80.9 C 40.9 84.7 26.2 89.2 16 94.3 C 10.9 96.8 6.9 99.5 4.2 102.2 C 1.5 105 0 107.9 0 110.9 C 0 113.9 1.5 116.8 4.2 119.6 C 9 124.5 17.6 128.9 29.3 133 C 64.5 145.1 128.2 153.2 200.9 153.2 C 256.3 153.2 306.4 148.5 342.8 140.9 C 361 137.1 375.7 132.6 385.9 127.5 C 391 125 395 122.3 397.7 119.6 C 400.4 116.8 401.9 113.9 401.9 110.9 L 401.5 110.9" fill="black"/>
        </g>
        <g id="Graphic_89">
          <title>path4382</title>
          <path d="M 256 82.4 C 256 127.7 147.9 127.7 147.9 82.4 C 147.9 37.1 172.1 .4 202 .4 C 231.8 .4 256 37.1 256 82.4" fill="#666"/>
        </g>
        <g id="Graphic_88">
          <title>path4384</title>
          <path d="M 256 82.4 L 255.6 82.4 C 255.6 93.6 249 101.9 238.9 107.6 C 228.8 113.2 215.4 116 201.9 116 C 188.4 116 175 113.2 164.9 107.6 C 154.8 102 148.2 93.6 148.2 82.4 C 148.2 59.8 154.2 39.4 164 24.6 C 173.7 9.8 187.1 .7 201.9 .7 C 216.7 .7 230.1 9.8 239.8 24.6 C 249.5 39.4 255.6 59.8 255.6 82.4 L 256 82.4 L 256.4 82.4 C 256.4 59.7 250.3 39.1 240.5 24.2 C 230.7 9.3 217.1 24158453e-20 202 24158453e-20 C 186.9 24158453e-20 173.3 9.3 163.5 24.2 C 153.7 39.1 147.6 59.7 147.6 82.4 C 147.6 93.9 154.5 102.5 164.7 108.2 C 174.9 113.9 188.5 116.7 202 116.7 C 215.6 116.7 229.1 113.9 239.4 108.2 C 249.6 102.5 256.5 93.9 256.5 82.4 L 256 82.4" fill="black"/>
        </g>
        <g id="Graphic_85">
          <title>path4390</title>
          <path d="M 224.3 107.3 C 224.3 109.6 224 111.9 223.5 114 L 215 113.9 L 203.6 115.9 L 192.3 116.3 L 184 115.1 C 183.9 114.8 183.8 114.5 183.7 114.2 C 183.2 112 182.9 109.8 182.9 107.4 C 182.9 99.9 185.8 93.1 190.2 88.6 C 193.8 85 198.5 82.8 203.5 82.8 C 208.5 82.8 213.1 84.9 216.7 88.5 C 221.4 92.9 224.3 99.7 224.3 107.3" fill="#92d6ff"/>
        </g>
        <g id="Graphic_84">
          <title>path4392</title>
          <path d="M 224.3 107.3 L 223.8 107.3 C 223.8 109.6 223.5 111.8 223 113.9 L 223.5 114 L 223.5 113.5 L 215 113.4 L 203.6 115.4 L 192.4 115.8 L 184.1 114.6 L 184 115.1 L 184.5 114.9 C 184.4 114.6 184.3 114.3 184.2 114 L 183.7 114.1 L 184.2 114 C 183.7 111.9 183.4 109.7 183.4 107.4 C 183.4 100 186.2 93.4 190.6 89 C 194.1 85.5 198.7 83.3 203.6 83.3 C 208.5 83.3 213 85.4 216.5 88.8 C 221 93.2 223.8 99.9 223.8 107.3 L 224.3 107.3 L 224.8 107.3 C 224.8 99.6 221.9 92.7 217.2 88 C 213.5 84.4 208.8 82.2 203.6 82.2 C 198.4 82.2 193.6 84.4 189.9 88.2 C 185.3 92.8 182.4 99.7 182.4 107.3 C 182.4 109.7 182.7 112 183.2 114.2 C 183.3 114.5 183.4 114.9 183.5 115.2 L 183.6 115.5 L 192.3 116.8 L 203.7 116.4 L 215.1 114.4 L 223.9 114.5 L 224 114.1 C 224.5 111.9 224.8 109.6 224.8 107.3 L 224.3 107.3" fill="black"/>
        </g>
        <g id="Graphic_83">
          <title>path4394</title>
          <path d="M 223.7 115 C 223.4 115.1 223.2 115.1 222.9 115.2 C 220.9 115.7 218.7 116.2 216.3 116.7 L 222.9 115.1 L 223.7 115 Z" fill="#92d6ff"/>
        </g>
        <g id="Graphic_82">
          <title>path4396</title>
          <path d="M 223.7 115 L 223.6 114.5 C 223.3 114.6 223.1 114.6 222.8 114.7 L 222.9 115.2 L 222.8 114.7 C 220.8 115.2 218.6 115.7 216.2 116.2 L 216.4 117.2 L 223 115.6 L 223.8 115.4 L 223.7 115 L 223.6 114.5 L 223.7 115 L 223.6 114.5 L 222.8 114.7 L 216.2 116.3 L 216.4 117.3 C 218.8 116.8 221 116.2 223 115.8 C 223.3 115.7 223.5 115.7 223.8 115.6 L 223.6 114.6 L 223.7 115 Z" fill="black"/>
        </g>
        <g id="Graphic_81">
          <title>path4398</title>
          <path d="M 218.3 68.2 C 218.3 78.8 211.7 87.4 203.6 87.4 C 195.5 87.4 188.9 78.8 188.9 68.2 C 188.9 57.6 195.5 49 203.6 49 C 211.7 49 218.3 57.6 218.3 68.2" fill="#92d6ff"/>
        </g>
        <g id="Graphic_80">
          <title>path4400</title>
          <path d="M 218.3 68.2 L 217.8 68.2 C 217.8 73.4 216.2 78.1 213.6 81.5 C 211 84.9 207.5 86.9 203.6 86.9 C 199.7 86.9 196.2 84.8 193.6 81.5 C 191 78.1 189.4 73.4 189.4 68.2 C 189.4 63 191 58.3 193.6 54.9 C 196.2 51.5 199.7 49.5 203.6 49.5 C 207.5 49.5 211 51.6 213.6 54.9 C 216.2 58.3 217.8 63 217.8 68.2 L 218.3 68.2 L 218.8 68.2 C 218.8 62.8 217.1 57.9 214.4 54.3 C 211.7 50.7 207.9 48.5 203.6 48.5 C 199.4 48.5 195.5 50.8 192.8 54.3 C 190.1 57.9 188.4 62.8 188.4 68.2 C 188.4 73.6 190.1 78.5 192.8 82.1 C 195.5 85.7 199.3 87.9 203.6 87.9 C 207.8 87.9 211.7 85.6 214.4 82.1 C 217.1 78.5 218.8 73.6 218.8 68.2 L 218.3 68.2" fill="black"/>
        </g>
        <g id="Graphic_79">
          <title>path4402</title>
          <path d="M 201.3 64.8 C 201.3 67.4 200.2 69.5 198.8 69.5 C 197.4 69.5 196.3 67.4 196.3 64.8 C 196.3 62.2 197.4 60.1 198.8 60.1 C 200.1 60.1 201.3 62.2 201.3 64.8" fill="black"/>
        </g>
        <g id="Graphic_78">
          <title>path4404</title>
          <path d="M 201.3 64.8 L 200.8 64.8 C 200.8 66 200.5 67.1 200.1 67.9 C 199.9 68.3 199.7 68.6 199.4 68.8 C 199.2 69 198.9 69.1 198.7 69.1 C 198.5 69.1 198.3 69 198 68.8 C 197.6 68.5 197.3 68 197 67.3 C 196.7 66.6 196.6 65.8 196.6 64.8 C 196.6 63.6 196.9 62.5 197.3 61.7 C 197.5 61.3 197.7 61 198 60.8 C 198.2 60.6 198.5 60.5 198.7 60.5 C 198.9 60.5 199.1 60.6 199.4 60.8 C 199.8 61.1 200.1 61.6 200.4 62.3 C 200.7 63 200.8 63.8 200.8 64.8 L 201.3 64.8 L 201.8 64.8 C 201.8 63.4 201.5 62.2 201 61.2 C 200.7 60.7 200.4 60.3 200.1 60 C 199.7 59.7 199.3 59.5 198.8 59.5 C 198.3 59.5 197.9 59.7 197.5 60 C 196.9 60.4 196.5 61.1 196.2 61.9 C 195.9 62.7 195.7 63.7 195.7 64.7 C 195.7 66.1 196 67.3 196.5 68.3 C 196.8 68.8 197.1 69.2 197.4 69.5 C 197.8 69.8 198.2 70 198.7 70 C 199.2 70 199.6 69.8 200 69.5 C 200.6 69.1 201 68.4 201.3 67.6 C 201.6 66.8 201.8 65.8 201.8 64.8 L 201.3 64.8" fill="black"/>
        </g>
        <g id="Graphic_77">
          <title>path4406</title>
          <path d="M 213.3 64.8 C 213.3 67.4 212.2 69.5 210.8 69.5 C 209.4 69.5 208.3 67.4 208.3 64.8 C 208.3 62.2 209.4 60.1 210.8 60.1 C 212.2 60.1 213.3 62.2 213.3 64.8" fill="black"/>
        </g>
        <g id="Graphic_76">
          <title>path4408</title>
          <path d="M 213.3 64.8 L 212.8 64.8 C 212.8 66 212.5 67.1 212.1 67.9 C 211.9 68.3 211.7 68.6 211.4 68.8 C 211.2 69 210.9 69.1 210.7 69.1 C 210.5 69.1 210.3 69 210 68.8 C 209.6 68.5 209.3 68 209 67.3 C 208.7 66.6 208.6 65.8 208.6 64.8 C 208.6 63.6 208.9 62.5 209.3 61.7 C 209.5 61.3 209.7 61 210 60.8 C 210.2 60.6 210.5 60.5 210.7 60.5 C 210.9 60.5 211.1 60.6 211.4 60.8 C 211.8 61.1 212.1 61.6 212.4 62.3 C 212.7 63 212.8 63.8 212.8 64.8 L 213.3 64.8 L 213.8 64.8 C 213.8 63.4 213.5 62.2 213 61.2 C 212.7 60.7 212.4 60.3 212.1 60 C 211.7 59.7 211.3 59.5 210.8 59.5 C 210.3 59.5 209.9 59.7 209.5 60 C 208.9 60.4 208.5 61.1 208.2 61.9 C 207.9 62.7 207.7 63.7 207.7 64.7 C 207.7 66.1 208 67.3 208.5 68.3 C 208.8 68.8 209.1 69.2 209.4 69.5 C 209.8 69.8 210.2 70 210.7 70 C 211.2 70 211.6 69.8 212 69.5 C 212.6 69.1 213 68.4 213.3 67.6 C 213.6 66.8 213.8 65.8 213.8 64.8 L 213.3 64.8" fill="black"/>
        </g>
        <g id="Graphic_74">
          <title>rect4418</title>
          <rect x="193.6" y="56.6" width="7.8" height="3.5" fill="black"/>
        </g>
        <g id="Graphic_72">
          <title>path4420</title>
          <path d="M 210.9 56.1 C 210.9 56.1 210.8 56.1 210.9 56.1 C 209.5 56.1 208 56.6 206.7 57.5 L 207.3 58.3 C 208.4 57.5 209.7 57.1 210.9 57.1 C 212.1 57.1 213.3 57.5 214.2 58.4 L 214.9 57.7 C 213.7 56.7 212.3 56.1 210.9 56.1" fill="black"/>
        </g>
        <g id="Graphic_71">
          <title>path4422</title>
          <path d="M 197.6 77.4 C 199.9 79 202.5 80.6 205.4 80.8 C 205.5 80.8 205.6 80.8 205.8 80.8 C 207.3 80.8 208.7 80.3 209.9 79.5 C 211.1 78.7 212 77.4 212.1 75.9 L 211.1 75.8 C 211 77 210.3 77.9 209.3 78.6 C 208.3 79.3 207 79.7 205.8 79.7 C 205.7 79.7 205.6 79.7 205.5 79.7 C 202.9 79.6 200.5 78.1 198.2 76.5 L 197.6 77.4 Z" fill="black"/>
        </g>
        <g id="Graphic_70">
          <title>path4424</title>
          <path d="M 203.6 52.7 C 203.3 52.7 203 52.8 202.8 53.2 C 202.6 53.5 202.4 53.9 202.4 54.5 C 202.4 55 202.6 55.5 202.8 55.8 C 203 56.1 203.3 56.2 203.6 56.3 C 203.9 56.3 204.2 56.2 204.4 55.8 C 204.6 55.5 204.8 55.1 204.8 54.5 L 205.3 54.5 L 204.8 54.5 C 204.8 54 204.6 53.5 204.4 53.2 C 204.2 52.9 203.9 52.7 203.6 52.7" fill="#99e1ff"/>
        </g>
        <g id="Graphic_69">
          <title>path4426</title>
          <path d="M 203.6 51.7 C 202.9 51.7 202.4 52 202 52.5 C 201.6 53 201.4 53.7 201.4 54.4 C 201.4 55.1 201.6 55.8 202 56.3 C 202.4 56.8 202.9 57.1 203.6 57.1 C 204.3 57.1 204.8 56.8 205.2 56.3 C 205.6 55.8 205.8 55.1 205.8 54.4 L 205.3 54.4 L 204.8 54.4 C 204.8 54.9 204.6 55.4 204.4 55.7 C 204.2 56 203.9 56.1 203.6 56.2 C 203.3 56.2 203 56.1 202.8 55.7 C 202.6 55.4 202.4 55 202.4 54.4 C 202.4 53.9 202.6 53.4 202.8 53.1 C 203 52.8 203.3 52.7 203.6 52.6 C 203.9 52.6 204.2 52.7 204.4 53.1 C 204.6 53.4 204.8 53.8 204.8 54.4 L 205.3 54.4 L 205.8 54.4 C 205.8 53.7 205.6 53 205.2 52.5 C 204.8 52.1 204.3 51.7 203.6 51.7" fill="#99e1ff"/>
        </g>
        <g id="Graphic_68">
          <title>path4428</title>
          <path d="M 194 70.1 C 193.7 70.1 193.4 70.2 193.2 70.5 C 193 70.8 192.8 71.2 192.8 71.8 C 192.8 72.3 193 72.8 193.2 73.1 C 193.4 73.4 193.7 73.5 194 73.6 C 194.3 73.6 194.6 73.5 194.8 73.1 C 195 72.8 195.2 72.4 195.2 71.8 L 195.7 71.8 L 195.2 71.8 C 195.2 71.3 195 70.8 194.8 70.5 C 194.6 70.2 194.3 70.1 194 70.1" fill="#99e1ff"/>
        </g>
        <g id="Graphic_67">
          <title>path4430</title>
          <path d="M 194 69.1 C 193.3 69.1 192.8 69.4 192.4 69.9 C 192 70.4 191.8 71.1 191.8 71.8 C 191.8 72.5 192 73.2 192.4 73.7 C 192.8 74.2 193.3 74.5 194 74.5 C 194.7 74.5 195.2 74.2 195.6 73.7 C 196 73.2 196.2 72.5 196.2 71.8 L 195.7 71.8 L 195.2 71.8 C 195.2 72.3 195 72.8 194.8 73.1 C 194.6 73.4 194.3 73.5 194 73.6 C 193.7 73.6 193.4 73.5 193.2 73.1 C 193 72.8 192.8 72.4 192.8 71.8 C 192.8 71.3 193 70.8 193.2 70.5 C 193.4 70.2 193.7 70.1 194 70.1 C 194.3 70.1 194.6 70.2 194.8 70.5 C 195 70.8 195.2 71.2 195.2 71.8 L 195.7 71.8 L 196.2 71.8 C 196.2 71.1 196 70.4 195.6 69.9 C 195.2 69.4 194.7 69.1 194 69.1" fill="#99e1ff"/>
        </g>
        <g id="Graphic_66">
          <title>path4432</title>
          <path d="M 214.5 70.1 C 214.2 70.1 213.9 70.2 213.7 70.5 C 213.5 70.8 213.3 71.2 213.3 71.8 C 213.3 72.3 213.5 72.8 213.7 73.1 C 213.9 73.4 214.2 73.5 214.5 73.6 C 214.8 73.6 215.1 73.5 215.3 73.1 C 215.5 72.8 215.7 72.4 215.7 71.8 L 216.2 71.8 L 215.7 71.8 C 215.7 71.3 215.5 70.8 215.3 70.5 C 215.1 70.2 214.8 70.1 214.5 70.1" fill="#99e1ff"/>
        </g>
        <g id="Graphic_65">
          <title>path4434</title>
          <path d="M 214.5 69.1 C 213.8 69.1 213.3 69.4 212.9 69.9 C 212.5 70.4 212.3 71.1 212.3 71.8 C 212.3 72.5 212.5 73.2 212.9 73.7 C 213.3 74.2 213.8 74.5 214.5 74.5 C 215.2 74.5 215.7 74.2 216.1 73.7 C 216.5 73.2 216.7 72.5 216.7 71.8 L 216.2 71.8 L 215.7 71.8 C 215.7 72.3 215.5 72.8 215.3 73.1 C 215.1 73.4 214.8 73.5 214.5 73.6 C 214.2 73.6 213.9 73.5 213.7 73.1 C 213.5 72.8 213.3 72.4 213.3 71.8 C 213.3 71.3 213.5 70.8 213.7 70.5 C 213.9 70.2 214.2 70.1 214.5 70.1 C 214.8 70.1 215.1 70.2 215.3 70.5 C 215.5 70.8 215.7 71.2 215.7 71.8 L 216.2 71.8 L 216.7 71.8 C 216.7 71.1 216.5 70.4 216.1 69.9 C 215.7 69.4 215.2 69.1 214.5 69.1" fill="#99e1ff"/>
        </g>
        <g id="Graphic_64">
          <title>path4436</title>
          <path d="M 194 93.3 C 193.7 93.3 193.4 93.4 193.2 93.7 C 193 94 192.8 94.4 192.8 95 C 192.8 95.5 193 96 193.2 96.3 C 193.4 96.6 193.7 96.7 194 96.8 C 194.3 96.8 194.6 96.7 194.8 96.3 C 195 96 195.2 95.6 195.2 95 L 195.7 95 L 195.2 95 C 195.2 94.5 195 94 194.8 93.7 C 194.6 93.5 194.3 93.3 194 93.3" fill="#94d9ff"/>
        </g>
        <g id="Graphic_63">
          <title>path4438</title>
          <path d="M 194 92.3 C 193.3 92.3 192.8 92.6 192.4 93.1 C 192 93.6 191.8 94.3 191.8 95 C 191.8 95.7 192 96.4 192.4 96.9 C 192.8 97.4 193.3 97.7 194 97.7 C 194.7 97.7 195.2 97.4 195.6 96.9 C 196 96.4 196.2 95.7 196.2 95 L 195.7 95 L 195.2 95 C 195.2 95.5 195 96 194.8 96.3 C 194.6 96.6 194.3 96.7 194 96.8 C 193.7 96.8 193.4 96.7 193.2 96.3 C 193 96 192.8 95.6 192.8 95 C 192.8 94.5 193 94 193.2 93.7 C 193.4 93.4 193.7 93.3 194 93.3 C 194.3 93.3 194.6 93.4 194.8 93.7 C 195 94 195.2 94.4 195.2 95 L 195.7 95 L 196.2 95 C 196.2 94.3 196 93.6 195.6 93.1 C 195.2 92.7 194.7 92.3 194 92.3" fill="#94d9ff"/>
        </g>
        <g id="Graphic_62">
          <title>path4440</title>
          <path d="M 208.2 88.8 C 207.9 88.8 207.6 88.9 207.4 89.3 C 207.2 89.6 207 90 207 90.6 C 207 91.1 207.2 91.6 207.4 91.9 C 207.6 92.2 207.9 92.3 208.2 92.4 C 208.5 92.4 208.8 92.3 209 91.9 C 209.2 91.6 209.4 91.2 209.4 90.6 L 209.9 90.6 L 209.4 90.6 C 209.4 90.1 209.2 89.6 209 89.3 C 208.8 89 208.5 88.8 208.2 88.8" fill="#97deff"/>
        </g>
        <g id="Graphic_61">
          <title>path4442</title>
          <path d="M 208.2 87.8 C 207.5 87.8 207 88.1 206.6 88.6 C 206.2 89.1 206 89.8 206 90.5 C 206 91.2 206.2 91.9 206.6 92.4 C 207 92.9 207.5 93.2 208.2 93.2 C 208.9 93.2 209.4 92.9 209.8 92.4 C 210.2 91.9 210.4 91.2 210.4 90.5 L 209.9 90.5 L 209.4 90.5 C 209.4 91 209.2 91.5 209 91.8 C 208.8 92.1 208.5 92.2 208.2 92.3 C 207.9 92.3 207.6 92.2 207.4 91.8 C 207.2 91.5 207 91.1 207 90.5 C 207 90 207.2 89.5 207.4 89.2 C 207.6 88.9 207.9 88.8 208.2 88.7 C 208.5 88.7 208.8 88.8 209 89.2 C 209.2 89.5 209.4 89.9 209.4 90.5 L 209.9 90.5 L 210.4 90.5 C 210.4 89.8 210.2 89.1 209.8 88.6 C 209.4 88.2 208.9 87.8 208.2 87.8" fill="#97deff"/>
        </g>
        <g id="Graphic_60">
          <title>path4444</title>
          <path d="M 201.3 106.2 C 201 106.2 200.7 106.3 200.5 106.7 C 200.3 107 200.1 107.4 200.1 108 C 200.1 108.5 200.3 109 200.5 109.3 C 200.7 109.6 201 109.7 201.3 109.8 C 201.6 109.8 201.9 109.7 202.1 109.3 C 202.3 109 202.5 108.6 202.5 108 L 203 108 L 202.5 108 C 202.5 107.5 202.3 107 202.1 106.7 C 201.8 106.4 201.5 106.2 201.3 106.2" fill="#99e1ff"/>
        </g>
        <g id="Graphic_59">
          <title>path4446</title>
          <path d="M 201.3 105.2 C 200.6 105.2 200.1 105.5 199.7 106 C 199.3 106.5 199.1 107.2 199.1 107.9 C 199.1 108.6 199.3 109.3 199.7 109.8 C 200.1 110.3 200.6 110.6 201.3 110.6 C 202 110.6 202.5 110.3 202.9 109.8 C 203.3 109.3 203.5 108.6 203.5 107.9 L 203 107.9 L 202.5 107.9 C 202.5 108.4 202.3 108.9 202.1 109.2 C 201.9 109.5 201.6 109.6 201.3 109.7 C 201 109.7 200.7 109.6 200.5 109.2 C 200.3 108.9 200.1 108.5 200.1 107.9 C 200.1 107.4 200.3 106.9 200.5 106.6 C 200.7 106.3 201 106.2 201.3 106.1 C 201.6 106.1 201.9 106.2 202.1 106.6 C 202.3 106.9 202.5 107.3 202.5 107.9 L 203 107.9 L 203.5 107.9 C 203.5 107.2 203.3 106.5 202.9 106 C 202.5 105.6 201.9 105.2 201.3 105.2" fill="#99e1ff"/>
        </g>
        <g id="Graphic_58">
          <title>path4448</title>
          <path d="M 218.3 106.2 C 218 106.2 217.7 106.3 217.5 106.7 C 217.3 107 217.1 107.4 217.1 108 C 217.1 108.5 217.3 109 217.5 109.3 C 217.7 109.6 218 109.7 218.3 109.8 C 218.6 109.8 218.9 109.7 219.1 109.3 C 219.3 109 219.5 108.6 219.5 108 L 220 108 L 219.5 108 C 219.5 107.5 219.3 107 219.1 106.7 C 218.9 106.4 218.6 106.2 218.3 106.2" fill="#99e1ff"/>
        </g>
        <g id="Graphic_57">
          <title>path4450</title>
          <path d="M 218.3 105.2 C 217.6 105.2 217.1 105.5 216.7 106 C 216.3 106.5 216.1 107.2 216.1 107.9 C 216.1 108.6 216.3 109.3 216.7 109.8 C 217.1 110.3 217.6 110.6 218.3 110.6 C 219 110.6 219.5 110.3 219.9 109.8 C 220.3 109.3 220.5 108.6 220.5 107.9 L 220 107.9 L 219.5 107.9 C 219.5 108.4 219.3 108.9 219.1 109.2 C 218.9 109.5 218.6 109.6 218.3 109.7 C 218 109.7 217.7 109.6 217.5 109.2 C 217.3 108.9 217.1 108.5 217.1 107.9 C 217.1 107.4 217.3 106.9 217.5 106.6 C 217.7 106.3 218 106.2 218.3 106.1 C 218.6 106.1 218.9 106.2 219.1 106.6 C 219.3 106.9 219.5 107.3 219.5 107.9 L 220 107.9 L 220.5 107.9 C 220.5 107.2 220.3 106.5 219.9 106 C 219.5 105.6 219 105.2 218.3 105.2" fill="#99e1ff"/>
        </g>
        <g id="Graphic_56">
          <title>path4452</title>
          <path d="M 207 99.4 C 206.7 99.4 206.4 99.5 206.2 99.9 C 206 100.2 205.8 100.6 205.8 101.2 C 205.8 101.7 206 102.2 206.2 102.5 C 206.4 102.8 206.7 102.9 207 103 C 207.3 103 207.6 102.9 207.8 102.5 C 208 102.2 208.2 101.8 208.2 101.2 L 208.7 101.2 L 208.2 101.2 C 208.2 100.7 208 100.2 207.8 99.9 C 207.6 99.5 207.3 99.4 207 99.4" fill="#94d9ff"/>
        </g>
        <g id="Graphic_55">
          <title>path4454</title>
          <path d="M 207 98.4 C 206.3 98.4 205.8 98.7 205.4 99.2 C 205 99.7 204.8 100.4 204.8 101.1 C 204.8 101.8 205 102.5 205.4 103 C 205.8 103.5 206.3 103.8 207 103.8 C 207.7 103.8 208.2 103.5 208.6 103 C 209 102.5 209.2 101.8 209.2 101.1 L 208.7 101.1 L 208.2 101.1 C 208.2 101.6 208 102.1 207.8 102.4 C 207.6 102.7 207.3 102.8 207 102.9 C 206.7 102.9 206.4 102.8 206.2 102.4 C 206 102.1 205.8 101.7 205.8 101.1 C 205.8 100.6 206 100.1 206.2 99.8 C 206.4 99.5 206.7 99.4 207 99.3 C 207.3 99.3 207.6 99.4 207.8 99.8 C 208 100.1 208.2 100.5 208.2 101.1 L 208.7 101.1 L 209.2 101.1 C 209.2 100.4 209 99.7 208.6 99.2 C 208.2 98.7 207.6 98.4 207 98.4" fill="#94d9ff"/>
        </g>
        <g id="Graphic_54">
          <title>path4456</title>
          <path d="M 190.6 108.4 C 190.3 108.4 190 108.5 189.8 108.9 C 189.6 109.2 189.4 109.6 189.4 110.2 C 189.4 110.7 189.6 111.2 189.8 111.5 C 190 111.8 190.3 111.9 190.6 111.9 C 190.9 111.9 191.2 111.8 191.4 111.5 C 191.6 111.2 191.8 110.8 191.8 110.2 L 192.3 110.2 L 191.8 110.2 C 191.8 109.7 191.6 109.2 191.4 108.9 C 191.2 108.6 190.9 108.4 190.6 108.4" fill="#96dbff"/>
        </g>
        <g id="Graphic_53">
          <title>path4458</title>
          <path d="M 190.6 107.4 C 189.9 107.4 189.4 107.7 189 108.2 C 188.6 108.7 188.4 109.4 188.4 110.1 C 188.4 110.8 188.6 111.5 189 112 C 189.4 112.5 189.9 112.8 190.6 112.8 C 191.3 112.8 191.8 112.5 192.2 112 C 192.6 111.5 192.8 110.8 192.8 110.1 L 192.3 110.1 L 191.8 110.1 C 191.8 110.6 191.6 111.1 191.4 111.4 C 191.2 111.7 190.9 111.8 190.6 111.8 C 190.3 111.8 190 111.7 189.8 111.4 C 189.6 111.1 189.4 110.7 189.4 110.1 C 189.4 109.6 189.6 109.1 189.8 108.8 C 190 108.5 190.3 108.4 190.6 108.3 C 190.9 108.3 191.2 108.4 191.4 108.8 C 191.6 109.1 191.8 109.5 191.8 110.1 L 192.3 110.1 L 192.8 110.1 C 192.8 109.4 192.6 108.7 192.2 108.2 C 191.8 107.8 191.3 107.4 190.6 107.4" fill="#96dbff"/>
        </g>
        <g id="Graphic_52">
          <title>path4460</title>
          <path d="M 217.5 97.2 C 217.2 97.2 216.9 97.3 216.7 97.7 C 216.5 98 216.3 98.4 216.3 99 C 216.3 99.5 216.5 100 216.7 100.3 C 216.9 100.6 217.2 100.7 217.5 100.7 C 217.8 100.7 218.1 100.6 218.3 100.3 C 218.5 100 218.7 99.6 218.7 99 L 219.2 99 L 218.7 99 C 218.7 98.5 218.5 98 218.3 97.7 C 218.1 97.3 217.8 97.2 217.5 97.2" fill="#a0ecff"/>
        </g>
        <g id="Graphic_51">
          <title>path4462</title>
          <path d="M 217.5 96.2 C 216.8 96.2 216.3 96.5 215.9 97 C 215.5 97.5 215.3 98.2 215.3 98.9 C 215.3 99.6 215.5 100.3 215.9 100.8 C 216.3 101.3 216.8 101.6 217.5 101.6 C 218.2 101.6 218.7 101.3 219.1 100.8 C 219.5 100.3 219.7 99.6 219.7 98.9 L 219.2 98.9 L 218.7 98.9 C 218.7 99.4 218.5 99.9 218.3 100.2 C 218.1 100.5 217.8 100.6 217.5 100.6 C 217.2 100.6 216.9 100.5 216.7 100.2 C 216.5 99.9 216.3 99.5 216.3 98.9 C 216.3 98.4 216.5 97.9 216.7 97.6 C 216.9 97.3 217.2 97.2 217.5 97.1 C 217.8 97.1 218.1 97.2 218.3 97.6 C 218.5 97.9 218.7 98.3 218.7 98.9 L 219.2 98.9 L 219.7 98.9 C 219.7 98.2 219.5 97.5 219.1 97 C 218.7 96.5 218.2 96.2 217.5 96.2" fill="#a0ecff"/>
        </g>
        <g id="Graphic_50">
          <title>path4464</title>
          <path d="M 201.9 93.3 C 201.6 93.3 201.3 93.4 201.1 93.7 C 200.9 94 200.7 94.4 200.7 95 C 200.7 95.5 200.9 96 201.1 96.3 C 201.3 96.6 201.6 96.7 201.9 96.8 C 202.2 96.8 202.5 96.7 202.7 96.3 C 202.9 96 203.1 95.6 203.1 95 L 203.6 95 L 203.1 95 C 203.1 94.5 202.9 94 202.7 93.7 C 202.5 93.5 202.2 93.3 201.9 93.3" fill="#96dbff"/>
        </g>
        <g id="Graphic_49">
          <title>path4466</title>
          <path d="M 201.9 92.3 C 201.2 92.3 200.7 92.6 200.3 93.1 C 199.9 93.6 199.7 94.3 199.7 95 C 199.7 95.7 199.9 96.4 200.3 96.9 C 200.7 97.4 201.2 97.7 201.9 97.7 C 202.6 97.7 203.1 97.4 203.5 96.9 C 203.9 96.4 204.1 95.7 204.1 95 L 203.6 95 L 203.1 95 C 203.1 95.5 202.9 96 202.7 96.3 C 202.5 96.6 202.2 96.7 201.9 96.8 C 201.6 96.8 201.3 96.7 201.1 96.3 C 200.9 96 200.7 95.6 200.7 95 C 200.7 94.5 200.9 94 201.1 93.7 C 201.3 93.4 201.6 93.3 201.9 93.3 C 202.2 93.3 202.5 93.4 202.7 93.7 C 202.9 94 203.1 94.4 203.1 95 L 203.6 95 L 204.1 95 C 204.1 94.3 203.9 93.6 203.5 93.1 C 203.1 92.7 202.6 92.3 201.9 92.3" fill="#96dbff"/>
        </g>
        <g id="Graphic_48">
          <title>path4468</title>
          <path d="M 187.2 101.6 C 186.9 101.6 186.6 101.7 186.4 102.1 C 186.2 102.4 186 102.8 186 103.4 C 186 103.9 186.2 104.4 186.4 104.7 C 186.6 105 186.9 105.1 187.2 105.2 C 187.5 105.2 187.8 105.1 188 104.7 C 188.2 104.4 188.4 104 188.4 103.4 L 188.9 103.4 L 188.4 103.4 C 188.4 102.9 188.2 102.4 188 102.1 C 187.8 101.7 187.5 101.6 187.2 101.6" fill="#99e1ff"/>
        </g>
        <g id="Graphic_47">
          <title>path4470</title>
          <path d="M 187.2 100.6 C 186.5 100.6 186 100.9 185.6 101.4 C 185.2 101.9 185 102.6 185 103.3 C 185 104 185.2 104.7 185.6 105.2 C 186 105.7 186.5 106 187.2 106 C 187.9 106 188.4 105.7 188.8 105.2 C 189.2 104.7 189.4 104 189.4 103.3 L 188.9 103.3 L 188.4 103.3 C 188.4 103.8 188.2 104.3 188 104.6 C 187.8 104.9 187.5 105 187.2 105.1 C 186.9 105.1 186.6 105 186.4 104.6 C 186.2 104.3 186 103.9 186 103.3 C 186 102.8 186.2 102.3 186.4 102 C 186.6 101.7 186.9 101.6 187.2 101.5 C 187.5 101.5 187.8 101.6 188 102 C 188.2 102.3 188.4 102.7 188.4 103.3 L 188.9 103.3 L 189.4 103.3 C 189.4 102.6 189.2 101.9 188.8 101.4 C 188.5 100.9 187.9 100.6 187.2 100.6" fill="#99e1ff"/>
        </g>
        <g id="Graphic_46">
          <title>path4472</title>
          <path d="M 202.6 116.4 L 201.3 116.4 C 201.5 116.6 201.7 116.7 201.9 116.7 C 202.2 116.7 202.4 116.6 202.6 116.4" fill="#155671"/>
        </g>
        <g id="Graphic_45">
          <title>path4474</title>
          <path d="M 201.9 113.3 C 201.6 113.3 201.3 113.4 201.1 113.7 C 200.9 114 200.7 114.4 200.7 115 C 200.7 115.2 200.7 115.3 200.7 115.4 L 203 115.3 C 203 115.2 203 115.1 203 114.9 L 203.5 114.9 L 203 114.9 C 203 114.4 202.8 113.9 202.6 113.6 C 202.5 113.4 202.2 113.3 201.9 113.3" fill="#9be4ff"/>
        </g>
        <g id="Graphic_44">
          <title>path4476</title>
          <path d="M 203.1 115.4 L 200.8 115.5 C 200.9 115.8 201 116.1 201.2 116.3 C 201.3 116.4 201.3 116.4 201.4 116.5 L 202.7 116.5 L 202.8 116.4 C 202.9 116 203 115.7 203.1 115.4" fill="#155671"/>
        </g>
        <g id="Graphic_43">
          <title>path4478</title>
          <path d="M 203.6 116.8 C 203 116.8 202.5 116.8 201.9 116.8 C 201.3 116.8 200.8 116.8 200.2 116.8 L 200.3 116.9 C 200.7 117.4 201.2 117.7 201.9 117.7 C 202.6 117.7 203.1 117.4 203.5 116.9 C 203.6 116.8 203.6 116.8 203.6 116.8" fill="#739aaa"/>
        </g>
        <g id="Graphic_42">
          <title>path4480</title>
          <path d="M 203.8 116.3 L 203.6 116.3 L 202.5 116.3 C 202.3 116.5 202.1 116.6 201.8 116.6 C 201.6 116.6 201.4 116.5 201.2 116.3 L 200 116.3 C 200.1 116.4 200.1 116.5 200.2 116.6 C 200.8 116.6 201.3 116.6 201.9 116.6 C 202.5 116.6 203 116.6 203.6 116.6 C 203.7 116.6 203.8 116.5 203.8 116.3" fill="#155671"/>
        </g>
        <g id="Graphic_41">
          <title>path4482</title>
          <path d="M 204.1 115 L 203.6 115 L 203.1 115 C 203.1 115.1 203.1 115.3 203.1 115.4 L 203.6 115.4 L 204.1 115.3 C 204.1 115.2 204.1 115.1 204.1 115 M 201.9 112.3 C 201.2 112.3 200.7 112.6 200.3 113.1 C 199.9 113.6 199.7 114.3 199.7 115 C 199.7 115.2 199.7 115.3 199.7 115.5 L 200.7 115.5 C 200.7 115.4 200.7 115.2 200.7 115.1 C 200.7 114.6 200.9 114.1 201.1 113.8 C 201.3 113.5 201.6 113.4 201.9 113.4 C 202.2 113.4 202.5 113.5 202.7 113.8 C 202.9 114.1 203.1 114.5 203.1 115.1 L 203.6 115.1 L 204.1 115.1 C 204.1 114.4 203.9 113.7 203.5 113.2 C 203.1 112.6 202.6 112.3 201.9 112.3" fill="#9be4ff"/>
        </g>
        <g id="Graphic_40">
          <title>path4484</title>
          <path d="M 200.8 115.4 L 199.8 115.4 C 199.9 115.8 200 116.1 200.1 116.4 L 201.3 116.4 C 201.2 116.3 201.2 116.3 201.1 116.2 C 201 116 200.8 115.8 200.8 115.4 M 204.1 115.3 L 203.6 115.4 L 203.1 115.4 C 203 115.8 202.9 116.1 202.7 116.3 L 202.6 116.4 L 203.7 116.4 L 203.9 116.4 C 204 116 204.1 115.6 204.1 115.3" fill="#155671"/>
        </g>
        <g id="Graphic_39">
          <title>path4486</title>
          <path d="M 211.6 95.5 C 211.3 95.5 211 95.6 210.8 95.9 C 210.6 96.2 210.4 96.6 210.4 97.2 C 210.4 97.7 210.6 98.2 210.8 98.5 C 211 98.8 211.3 98.9 211.6 99 C 211.9 99 212.2 98.9 212.4 98.5 C 212.6 98.2 212.8 97.8 212.8 97.2 L 213.3 97.2 L 212.8 97.2 C 212.8 96.7 212.6 96.2 212.4 95.9 C 212.2 95.7 211.9 95.5 211.6 95.5" fill="#9de6ff"/>
        </g>
        <g id="Graphic_38">
          <title>path4488</title>
          <path d="M 211.6 94.5 C 210.9 94.5 210.4 94.8 210 95.3 C 209.6 95.8 209.4 96.5 209.4 97.2 C 209.4 97.9 209.6 98.6 210 99.1 C 210.4 99.6 210.9 99.9 211.6 99.9 C 212.3 99.9 212.8 99.6 213.2 99.1 C 213.6 98.6 213.8 97.9 213.8 97.2 L 213.3 97.2 L 212.8 97.2 C 212.8 97.7 212.6 98.2 212.4 98.5 C 212.2 98.8 211.9 98.9 211.6 99 C 211.3 99 211 98.9 210.8 98.5 C 210.6 98.2 210.4 97.8 210.4 97.2 C 210.4 96.7 210.6 96.2 210.8 95.9 C 211 95.6 211.3 95.5 211.6 95.5 C 211.9 95.5 212.2 95.6 212.4 95.9 C 212.6 96.2 212.8 96.6 212.8 97.2 L 213.3 97.2 L 213.8 97.2 C 213.8 96.5 213.6 95.8 213.2 95.3 C 212.9 94.9 212.3 94.5 211.6 94.5" fill="#9de6ff"/>
        </g>
        <g id="Graphic_37">
          <title>path4490</title>
          <path d="M 195.7 101.6 C 195.4 101.6 195.1 101.7 194.9 102.1 C 194.7 102.4 194.5 102.8 194.5 103.4 C 194.5 103.9 194.7 104.4 194.9 104.7 C 195.1 105 195.4 105.1 195.7 105.2 C 196 105.2 196.3 105.1 196.5 104.7 C 196.7 104.4 196.9 104 196.9 103.4 L 197.4 103.4 L 196.9 103.4 C 196.9 102.9 196.7 102.4 196.5 102.1 C 196.3 101.7 196 101.6 195.7 101.6" fill="#99e1ff"/>
        </g>
        <g id="Graphic_36">
          <title>path4492</title>
          <path d="M 195.7 100.6 C 195 100.6 194.5 100.9 194.1 101.4 C 193.7 101.9 193.5 102.6 193.5 103.3 C 193.5 104 193.7 104.7 194.1 105.2 C 194.5 105.7 195 106 195.7 106 C 196.4 106 196.9 105.7 197.3 105.2 C 197.7 104.7 197.9 104 197.9 103.3 L 197.4 103.3 L 196.9 103.3 C 196.9 103.8 196.7 104.3 196.5 104.6 C 196.3 104.9 196 105 195.7 105.1 C 195.4 105.1 195.1 105 194.9 104.6 C 194.7 104.3 194.5 103.9 194.5 103.3 C 194.5 102.8 194.7 102.3 194.9 102 C 195.1 101.7 195.4 101.6 195.7 101.5 C 196 101.5 196.3 101.6 196.5 102 C 196.7 102.3 196.9 102.7 196.9 103.3 L 197.4 103.3 L 197.9 103.3 C 197.9 102.6 197.7 101.9 197.3 101.4 C 196.9 100.9 196.4 100.6 195.7 100.6" fill="#99e1ff"/>
        </g>
        <g id="Graphic_35">
          <title>path4494</title>
          <path d="M 213.7 114.6 L 213.2 114.7 L 213.3 114.7 C 213.5 114.7 213.6 114.6 213.7 114.6" fill="#7dc3e1"/>
        </g>
        <g id="Graphic_34">
          <title>path4496</title>
          <path d="M 213.3 111.3 C 213 111.3 212.7 111.4 212.5 111.8 C 212.3 112.1 212.1 112.5 212.1 113.1 C 212.1 113.4 212.2 113.7 212.3 113.9 L 214.5 113.5 C 214.5 113.4 214.5 113.2 214.5 113.1 L 215 113.1 L 214.5 113.1 C 214.5 112.6 214.3 112.1 214.1 111.8 C 213.9 111.4 213.6 111.3 213.3 111.3" fill="#a2eeff"/>
        </g>
        <g id="Graphic_33">
          <title>path4498</title>
          <path d="M 214.5 113.4 L 212.3 113.8 C 212.4 114 212.4 114.1 212.5 114.2 C 212.7 114.5 212.9 114.6 213.2 114.6 L 213.7 114.5 C 213.8 114.4 214 114.3 214.1 114.2 C 214.3 114 214.4 113.7 214.5 113.4" fill="#259acc"/>
        </g>
        <g id="Graphic_32">
          <title>path4500</title>
          <path d="M 215.1 114.3 L 213.8 114.5 C 213.7 114.6 213.5 114.6 213.4 114.6 L 213.3 114.6 L 211.9 114.8 C 212.1 115 212.3 115.2 212.5 115.3 C 213.2 115.2 214 115.1 214.7 115 C 214.8 114.9 214.9 114.8 215 114.7 C 215.1 114.5 215.2 114.4 215.3 114.2 L 215.1 114.3" fill="#7dc3e1"/>
        </g>
        <g id="Graphic_31">
          <title>path4502</title>
          <path d="M 214.6 115.2 C 213.9 115.3 213.2 115.4 212.4 115.5 C 212.7 115.6 213 115.7 213.3 115.7 C 213.8 115.7 214.3 115.5 214.6 115.2" fill="#259acc"/>
        </g>
        <g id="Graphic_30">
          <title>path4504</title>
          <path d="M 215.5 113 L 215 113 L 214.5 113 C 214.5 113.2 214.5 113.3 214.5 113.4 L 215 113.3 L 215.5 113.3 C 215.5 113.2 215.5 113.1 215.5 113 M 213.3 110.3 C 212.6 110.3 212.1 110.6 211.7 111.1 C 211.3 111.6 211.1 112.3 211.1 113 C 211.1 113.4 211.2 113.7 211.3 114 L 212.3 113.8 C 212.2 113.6 212.1 113.3 212.1 113 C 212.1 112.5 212.3 112 212.5 111.7 C 212.7 111.4 213 111.3 213.3 111.2 C 213.6 111.2 213.9 111.3 214.1 111.7 C 214.3 112 214.5 112.4 214.5 113 L 215 113 L 215.5 113 C 215.5 112.3 215.3 111.6 214.9 111.1 C 214.5 110.6 214 110.3 213.3 110.3" fill="#a2eeff"/>
        </g>
        <g id="Graphic_29">
          <title>path4506</title>
          <path d="M 212.3 113.8 L 211.3 114 C 211.4 114.3 211.6 114.6 211.7 114.8 C 211.7 114.8 211.7 114.9 211.8 114.9 L 213.2 114.7 C 213 114.7 212.7 114.5 212.5 114.3 C 212.4 114.1 212.4 114 212.3 113.8 M 215 113.3 L 214.5 113.4 C 214.4 113.7 214.3 114 214.2 114.2 C 214.1 114.4 213.9 114.5 213.8 114.5 L 215.1 114.3 L 215.3 114.3 C 215.4 114 215.5 113.7 215.6 113.3 L 215 113.3" fill="#259acc"/>
        </g>
        <g id="Graphic_28">
          <title>path4508</title>
          <path d="M 194.8 116.6 L 193.3 116.6 C 193.5 116.9 193.8 117 194 117 C 194.3 117.1 194.6 116.9 194.8 116.6" fill="#6e858f"/>
        </g>
        <g id="Graphic_27">
          <title>path4510</title>
          <path d="M 194 113.7 C 193.7 113.7 193.4 113.8 193.2 114.2 C 193 114.5 192.8 114.9 192.8 115.5 C 192.8 115.6 192.8 115.7 192.8 115.8 L 195.2 115.7 C 195.2 115.6 195.2 115.5 195.2 115.4 L 195.7 115.4 L 195.2 115.4 C 195.2 114.9 195 114.4 194.8 114.1 C 194.6 113.8 194.3 113.7 194 113.7" fill="#97deff"/>
        </g>
        <g id="Graphic_26">
          <title>path4512</title>
          <path d="M 195.2 115.6 L 192.8 115.7 C 192.9 116.1 193 116.4 193.2 116.6 C 193.2 116.6 193.2 116.7 193.3 116.7 L 194.8 116.7 C 195 116.4 195.2 116 195.2 115.6" fill="#0c3444"/>
        </g>
        <g id="Graphic_25">
          <title>path4514</title>
          <path d="M 196 116.6 L 194.8 116.6 C 194.6 116.9 194.3 117 194 117 C 193.7 117 193.5 116.9 193.3 116.6 L 192.3 116.6 L 192.1 116.6 C 192.2 116.8 192.3 117 192.4 117.1 C 192.8 117.6 193.3 117.9 194 117.9 C 194.7 117.9 195.2 117.6 195.6 117.1 C 195.8 117 195.9 116.8 196 116.6" fill="#6e858f"/>
        </g>
        <g id="Graphic_24">
          <title>path4516</title>
          <path d="M 196.2 115.4 L 195.7 115.4 L 195.2 115.4 C 195.2 115.5 195.2 115.6 195.2 115.7 L 196.2 115.7 C 196.2 115.5 196.2 115.4 196.2 115.4 M 194 112.7 C 193.3 112.7 192.8 113 192.4 113.5 C 192 114 191.8 114.7 191.8 115.4 C 191.8 115.5 191.8 115.6 191.8 115.7 L 192.3 115.8 L 192.8 115.8 C 192.8 115.7 192.8 115.6 192.8 115.5 C 192.8 115 193 114.5 193.2 114.2 C 193.4 113.9 193.7 113.8 194 113.7 C 194.3 113.7 194.6 113.8 194.8 114.2 C 195 114.5 195.2 114.9 195.2 115.5 L 195.7 115.5 L 196.2 115.5 C 196.2 114.8 196 114.1 195.6 113.6 C 195.2 113 194.7 112.7 194 112.7" fill="#97deff"/>
        </g>
        <g id="Graphic_23">
          <title>path4518</title>
          <path d="M 191.8 115.6 C 191.8 116 191.9 116.3 192.1 116.7 L 192.3 116.7 L 193.3 116.7 C 193.3 116.7 193.3 116.7 193.2 116.6 C 193 116.4 192.9 116.1 192.8 115.7 L 192.3 115.7 L 191.8 115.6 M 196.2 115.6 L 195.2 115.6 C 195.2 116 195 116.3 194.8 116.6 L 196 116.6 C 196.1 116.3 196.2 116 196.2 115.6" fill="#0c3444"/>
        </g>
        <g id="Graphic_21">
          <title>circle4522</title>
          <circle cx="184.89999" cy="38.90001" r="2.90000616189727" fill="red"/>
        </g>
        <g id="Graphic_20">
          <title>path4524</title>
          <path d="M 185.5 36 L 185.4 36.5 C 186.5 36.7 187.3 37.7 187.3 38.8 C 187.3 39 187.3 39.1 187.3 39.3 C 187.1 40.4 186.1 41.2 185 41.2 C 184.8 41.2 184.7 41.2 184.5 41.2 C 183.4 41 182.6 40 182.6 38.9 C 182.6 38.7 182.6 38.6 182.6 38.4 C 182.8 37.3 183.8 36.5 184.9 36.5 C 185.1 36.5 185.2 36.5 185.4 36.5 L 185.5 36 L 185.6 35.5 C 185.4 35.5 185.1 35.4 184.9 35.4 C 183.3 35.4 181.9 36.5 181.6 38.1 C 181.6 38.3 181.5 38.6 181.5 38.8 C 181.5 40.4 182.6 41.8 184.2 42.1 C 184.4 42.1 184.7 42.2 184.9 42.2 C 186.5 42.2 187.9 41.1 188.2 39.5 C 188.2 39.3 188.3 39 188.3 38.8 C 188.3 37.2 187.2 35.8 185.6 35.5 Z" fill="red"/>
        </g>
        <g id="Graphic_18">
          <title>circle4528</title>
          <circle cx="222.5" cy="38.90001" r="2.90000616189728" fill="red"/>
        </g>
        <g id="Graphic_16">
          <title>path4532</title>
          <path d="M 198.7 65.4 C 198.6 65.4 198.4 65.5 198.3 65.6 C 198.2 65.8 198.1 66 198.1 66.3 C 198.1 66.6 198.2 66.9 198.3 67 C 198.4 67.2 198.6 67.2 198.7 67.2 C 198.8 67.2 199 67.1 199.1 67 C 199.2 66.8 199.3 66.6 199.3 66.3 L 199.8 66.3 L 199.3 66.3 C 199.3 66 199.2 65.7 199.1 65.6 C 199 65.5 198.8 65.4 198.7 65.4" fill="#484848"/>
        </g>
        <g id="Graphic_15">
          <title>path4534</title>
          <path d="M 198.7 64.4 C 198.2 64.4 197.8 64.7 197.5 65 C 197.2 65.4 197.1 65.8 197.1 66.3 C 197.1 66.8 197.3 67.3 197.5 67.6 C 197.8 68 198.2 68.2 198.7 68.2 C 199.2 68.2 199.6 67.9 199.9 67.6 C 200.2 67.2 200.3 66.8 200.3 66.3 L 199.8 66.3 L 199.3 66.3 C 199.3 66.6 199.2 66.9 199.1 67 C 199 67.2 198.8 67.2 198.7 67.2 C 198.6 67.2 198.4 67.1 198.3 67 C 198.2 66.8 198.1 66.6 198.1 66.3 C 198.1 66 198.2 65.7 198.3 65.6 C 198.4 65.4 198.6 65.4 198.7 65.4 C 198.8 65.4 199 65.5 199.1 65.6 C 199.2 65.8 199.3 66 199.3 66.3 L 199.8 66.3 L 200.3 66.3 C 200.3 65.8 200.1 65.3 199.9 65 C 199.6 64.7 199.2 64.4 198.7 64.4" fill="#10445a"/>
        </g>
        <g id="Graphic_14">
          <title>path4536</title>
          <path d="M 210.8 65.4 C 210.7 65.4 210.5 65.5 210.4 65.6 C 210.3 65.8 210.2 66 210.2 66.3 C 210.2 66.6 210.3 66.9 210.4 67 C 210.5 67.2 210.7 67.2 210.8 67.2 C 210.9 67.2 211.1 67.1 211.2 67 C 211.3 66.8 211.4 66.6 211.4 66.3 L 211.9 66.3 L 211.4 66.3 C 211.4 66 211.3 65.7 211.2 65.6 C 211 65.5 210.9 65.4 210.8 65.4" fill="#484848"/>
        </g>
        <g id="Graphic_13">
          <title>path4538</title>
          <path d="M 210.8 64.4 C 210.3 64.4 209.9 64.7 209.6 65 C 209.3 65.4 209.2 65.8 209.2 66.3 C 209.2 66.8 209.4 67.3 209.6 67.6 C 209.9 68 210.3 68.2 210.8 68.2 C 211.3 68.2 211.7 67.9 212 67.6 C 212.3 67.2 212.4 66.8 212.4 66.3 L 211.9 66.3 L 211.4 66.3 C 211.4 66.6 211.3 66.9 211.2 67 C 211.1 67.2 210.9 67.2 210.8 67.2 C 210.7 67.2 210.5 67.1 210.4 67 C 210.3 66.8 210.2 66.6 210.2 66.3 C 210.2 66 210.3 65.7 210.4 65.6 C 210.5 65.4 210.7 65.4 210.8 65.4 C 210.9 65.4 211.1 65.5 211.2 65.6 C 211.3 65.8 211.4 66 211.4 66.3 L 211.9 66.3 L 212.4 66.3 C 212.4 65.8 212.2 65.3 212 65 C 211.7 64.7 211.2 64.4 210.8 64.4" fill="#10445a"/>
        </g>
        <g id="Graphic_11">
          <title>path4542</title>
          <path d="M 165.8 57.8 L 156.8 57.8 C 156.8 57.8 156.8 57.8 153.9 66.2 C 151 74.6 153.9 88.2 153.9 88.2 C 153.9 88.2 158 88.3 160.7 88.3 C 162.1 88.3 163.1 88.3 163.1 88.2 C 163.1 87.9 162.6 72.8 163.1 66.2 C 163.5 59.5 165.8 57.8 165.8 57.8" fill="#a3a3a3"/>
        </g>
        <g id="Graphic_10">
          <title>path4544</title>
          <path d="M 173.9 22.5 L 170.5 25.5 L 165.8 30.8 C 165.8 30.8 156.2 45.7 157.1 45.7 C 157.1 45.7 157.1 45.7 157.2 45.7 L 159.2 46.6 L 167.2 48.9 L 173.9 35.9 C 173.9 35.9 175.8 32.4 180.3 30.7 C 184.8 29 184.8 29 184.8 29 L 173.9 22.5" fill="#a3a3a3"/>
        </g>
        <g id="Graphic_9">
          <title>path4546</title>
          <path d="M 135.1 176.2 L 150.8 195.5 C 153.5 198.8 157.6 200.8 161.9 200.8 L 188.5 200.8 L 135.1 176.2" fill="#a3a3a3"/>
        </g>
        <g id="Graphic_8">
          <title>polygon4548</title>
          <path d="M 176.2 200.8 L 150.5 242.3 L 176.2 242.3 L 194 200.8 Z" fill="#b3b3b3"/>
        </g>
        <g id="Graphic_7">
          <title>polygon4550</title>
          <path d="M 242.3 200.8 L 268 242.3 L 242.3 242.3 L 224.5 200.8 Z" fill="#666"/>
        </g>
        <g id="Line_6">
          <title>polyline4552</title>
        </g>
        <g id="Graphic_5">
          <title>path4554</title>
          <path d="M 186.3 49.1 L 186.9 49.4 C 186.9 49.4 186.7 49.2 186.3 49.1 M 181.3 46.6 C 181.3 46.6 181.3 46.6 178.9 51.6 C 176.5 56.6 177.3 62.2 177.3 62.2 L 181.8 61.1 C 181.8 61.1 181.8 61.1 183 54.1 C 183.8 49.8 185.1 49 185.9 49 C 186 49 186.2 49 186.3 49 L 181.3 46.6" fill="#b3b3b3"/>
        </g>
        <g id="Graphic_4">
          <title>path4556</title>
          <path d="M 221.6 113.8 C 222.7 113.8 223.8 113.8 224.8 113.8 C 226.7 113.8 226.7 110.8 224.8 110.8 C 223.7 110.8 222.6 110.8 221.6 110.8 C 219.7 110.8 219.7 113.8 221.6 113.8 Z" fill="#290000"/>
        </g>
        <g id="Graphic_17">
          <title>path4530</title>
          <path d="M 225.4 38.9 L 224.9 38.9 C 224.9 40.2 223.8 41.3 222.5 41.3 C 221.2 41.3 220.1 40.2 220.1 38.9 C 220.1 37.6 221.2 36.5 222.5 36.5 C 223.8 36.5 224.9 37.6 224.9 38.9 L 225.4 38.9 L 225.9 38.9 C 225.9 37 224.4 35.5 222.5 35.5 C 220.6 35.5 219.1 37 219.1 38.9 C 219.1 40.8 220.6 42.3 222.5 42.3 C 224.4 42.3 225.9 40.8 225.9 38.9 Z" fill="red"/>
        </g>
        <g id="Line_99">
          <line x1="186.87532" y1="41.57311" x2="194.5" y2="52.27719" stroke="black" stroke-linecap="round" stroke-linejoin="miter" stroke-width=".5"/>
        </g>
        <g id="Line_100">
          <line x1="220.50004" y1="41.75221" x2="212.70004" y2="52.27719" stroke="black" stroke-linecap="round" stroke-linejoin="miter" stroke-width=".5"/>
        </g>
      </g>
    </g>
  </g>
</svg>
